<?xml version="1.0" encoding="utf-8"?>
<svg xmlns="http://www.w3.org/2000/svg" width="64" height="64">
  <path fill="#e0655f" opacity=".14" d="M0 0h64v64H0z"/>
  <path fill="#e38784" d="M23.5 56a6.5 6.5 0 116.5-6.5 6.507 6.507 0 01-6.5 6.5zm0-10.833a4.334 4.334 0 104.333 4.333 4.338 4.338 0 00-4.333-4.334zM23.5 19a6.5 6.5 0 116.5-6.5 6.507 6.507 0 01-6.5 6.5zm0-10.833a4.334 4.334 0 104.333 4.333A4.338 4.338 0 0023.5 8.166zM6.5 56a6.5 6.5 0 116.5-6.5A6.507 6.507 0 016.5 56zm0-10.833a4.334 4.334 0 104.333 4.333A4.338 4.338 0 006.5 45.166zM6.5 19a6.5 6.5 0 116.5-6.5A6.507 6.507 0 016.5 19zm0-10.833a4.334 4.334 0 104.333 4.333A4.338 4.338 0 006.5 8.166zM40.5 37a6.5 6.5 0 116.5-6.5 6.507 6.507 0 01-6.5 6.5zm0-10.833a4.334 4.334 0 104.333 4.333 4.338 4.338 0 00-4.333-4.334zM40.5 56a6.5 6.5 0 116.5-6.5 6.507 6.507 0 01-6.5 6.5zm0-10.833a4.334 4.334 0 104.333 4.333 4.338 4.338 0 00-4.333-4.334z"/>
  <path fill="#e38784" d="M57.6 45a6.389 6.389 0 01-6.4-6.363 6.289 6.289 0 011.22-3.725l-.014.008-7.831-17.628a6.4 6.4 0 01-8.429-.309L28.3 27.051a6.348 6.348 0 01-4.832 10.525 6.394 6.394 0 01-6.3-5.3H12.7a6.336 6.336 0 110-2.121h4.459a6.4 6.4 0 019.444-4.479l8.255-10.384a6.4 6.4 0 1111.19.287l7.937 17.812a6.317 6.317 0 014.682-1.022V16.235L49.7 12.272a1.058 1.058 0 010-1.939l9.6-4.242a1.075 1.075 0 011.014.08 1.056 1.056 0 01.486.889v26.074A6.352 6.352 0 0157.6 45zm0-10.606a4.242 4.242 0 104.267 4.243 4.009 4.009 0 00-4.267-4.243zM23.467 26.97a4.242 4.242 0 104.267 4.242 4.259 4.259 0 00-4.267-4.242zm-17.067 0a4.242 4.242 0 104.267 4.242A4.259 4.259 0 006.4 26.97zM40.533 8.121a4.243 4.243 0 104.267 4.243 4.26 4.26 0 00-4.267-4.243zm18.133.572L52.76 11.3l5.907 2.61V8.693zM52 51h2v2h-2zM57 51h2v2h-2zM61 51h2v2h-2z"/>
</svg>