<?xml version="1.0" encoding="utf-8"?>
<svg xmlns="http://www.w3.org/2000/svg" width="64" height="64">
  <title>icon__goals--speed</title>
  <path fill="#f8e051" opacity=".14" d="M0 0h64v64H0z"/>
  <g opacity=".8">
    <path fill="#ecc80b" d="M46.242 62a15.711 15.711 0 01-7.289-1.8 15.984 15.984 0 01-5.491-4.777 8.332 8.332 0 01-4.562 6.47 1.018 1.018 0 01-.909 0 8.329 8.329 0 01-4.629-7.49V52.85H2.017a1.016 1.016 0 01-.93-1.429l1.972-4.438A18.029 18.029 0 017.1 41.254V21.581a11.355 11.355 0 013.349-8.081 1.015 1.015 0 011.437 0 11.358 11.358 0 013.348 8.082v11.823a16.005 16.005 0 001.989-6l1.354-11.285a18.833 18.833 0 015.36-11.027l3.8-3.8a1.016 1.016 0 011.433.007l3.8 3.8a18.837 18.837 0 015.354 11.02l1.354 11.28a15.909 15.909 0 001.066 4.089l.108-.04c.264-.1.538-.2.814-.286v-9.582a11.362 11.362 0 013.349-8.081 1.015 1.015 0 011.437 0 11.355 11.355 0 013.348 8.08v9.32a15.868 15.868 0 018.717 5.477A15.743 15.743 0 0146.242 62zm0-29.483a13.3 13.3 0 00-1.62.1l-.033.006-.037.006a14.481 14.481 0 00-1.614.3 13.669 13.669 0 00-2.594.932c-.387.185-.771.391-1.139.612l-.1.062c-.106.064-.216.129-.322.2a17.575 17.575 0 00-1.422 1.061 14.31 14.31 0 00-1.107 1.066c-.157.167-.3.318-.436.48s-.254.308-.374.461c-.1.134-.212.28-.334.447l-.044.061c-.1.143-.209.291-.307.441s-.179.287-.263.429l-.053.09c-.169.284-.33.58-.479.878-.078.156-.162.323-.238.491a13.056 13.056 0 00-.444 1.13l-.037.1c-.049.139-.1.282-.142.424-.1.348-.2.7-.271 1.05-.019.087-.034.176-.049.262l-.029.163c-.055.305-.1.577-.127.832-.013.111-.029.243-.041.38-.044.478-.065.888-.065 1.255 0 .443.023.9.068 1.364.014.147.039.295.062.438l.035.22.025.182c.022.162.044.326.076.484.055.278.131.556.2.826l.017.063.038.152c.02.081.04.165.065.246.1.331.226.663.337.949a13.717 13.717 0 1015.164-18.43 15.274 15.274 0 00-1.174-.158c-.352-.024-.771-.055-1.192-.055zM25.4 52.85v1.55a6.283 6.283 0 003.05 5.421A6.281 6.281 0 0031.5 54.4v-1.55h-2.033v2.034h-2.034V52.85zm-6.1-7.116v5.083h11.864a15.62 15.62 0 01-.323-1.265c-.023-.106-.042-.214-.061-.319l-.019-.109a14.486 14.486 0 01-.157-1.021 15.52 15.52 0 01-.113-2.369H19.3zm9.15-42.279l-3.076 3.078a16.784 16.784 0 00-4.774 9.831l-1.358 11.285a18.049 18.049 0 01-8.261 13.125 16.022 16.022 0 00-6.062 7.036l-1.338 3.007h13.686v-6.1a1.018 1.018 0 011.017-1.017H25.4v-2.033a3.045 3.045 0 016.006-.717c.032-.091.069-.181.1-.268l.061-.152.018-.046c.078-.2.159-.4.247-.6.135-.306.286-.619.448-.93.1-.189.206-.374.309-.552v-.007c.105-.184.225-.381.365-.6l.064-.1c.086-.136.175-.275.267-.408.221-.32.457-.635.7-.937.084-.1.174-.206.26-.3l.087-.1c.185-.213.369-.415.546-.6.126-.13.254-.263.385-.391.238-.231.487-.457.761-.691.147-.126.3-.246.474-.386.257-.2.487-.375.7-.527.175-.123.355-.242.508-.341.178-.114.372-.232.609-.37l.153-.09c.129-.077.26-.154.392-.224a18.063 18.063 0 01-1.217-4.674L36.3 16.363a16.783 16.783 0 00-4.777-9.832L28.45 3.455zm0 37.2a1.018 1.018 0 00-1.017 1.017V43.7h2.034v-2.033a1.018 1.018 0 00-1.017-1.017zM11.166 15.742a9.281 9.281 0 00-2.033 5.839v18l.145-.1c.2-.14.4-.284.609-.417a16.169 16.169 0 003.313-2.83V21.581a9.281 9.281 0 00-2.034-5.839zm34.567 0a9.281 9.281 0 00-2.033 5.839V30.7c.079-.013.159-.024.237-.033l.177-.024.205-.028c.153-.022.31-.044.466-.059.391-.039.812-.06 1.286-.065H46.416c.4.006.77.025 1.139.058h.087c.041 0 .083 0 .124.006v-8.98a9.281 9.281 0 00-2.033-5.839z"/>
    <path fill="#ecc80b" d="M28 16a3 3 0 013 3h2a5 5 0 00-10 0h2a3 3 0 013-3zM27 23h2v2h-2zM27 27h2v2h-2zM27 31h2v2h-2zM50.087 37L51 35.139a12.685 12.685 0 00-7-1.019l.3 2.038a10.5 10.5 0 015.787.842zM43 37.057L42.3 35a11.867 11.867 0 00-2.3 1.143L41.1 38a9.787 9.787 0 011.9-.943zM49 48h-3a1 1 0 01-1-1v-3a1 1 0 01.47-.848l8-5A1.008 1.008 0 0154 38a1 1 0 01.848 1.529l-5 8A1 1 0 0149 48zm1.855-5.856L47 44.554V46h1.445zM41 55a3 3 0 113-3 3 3 0 01-3 3zm0-4a1 1 0 101 1 1 1 0 00-1-1zM53 55a3 3 0 113-3 3 3 0 01-3 3zm0-4a1 1 0 101 1 1 1 0 00-1-1z"/>
  </g>
</svg>