<?xml version="1.0" encoding="utf-8"?>
<svg xmlns="http://www.w3.org/2000/svg" width="64" height="64">
  <title>icon__goals--culture</title>
  <path fill="#805fe0" opacity=".14" d="M0 0h64v64H0z"/>
  <g opacity=".8">
    <path fill="#6f49e4" d="M60.991 61h-21.2a1.015 1.015 0 01-1.01-1.018v-7.121H25.653a1.015 1.015 0 01-1.01-1.018V41.668H20.6a1.015 1.015 0 01-1-1.018V25.389a21.254 21.254 0 01.37-3.883L11 16.086l1.039-1.745 8.414 5.088a21.414 21.414 0 019.963-12.65L15.312 2.974 15.8 1l17.53 4.415a20.936 20.936 0 017.47-1.393A21.31 21.31 0 0162 25.389v34.593A1.015 1.015 0 0160.991 61zm-31.3-19.332h2.02a6.095 6.095 0 01-5.048 6.013v3.144h13.125a1.015 1.015 0 011.012 1.018v7.123h19.181V25.389A19.121 19.121 0 0037.246 6.4l2.786.7-.49 1.974-6.1-1.537a19.415 19.415 0 00-11.187 12.982l9.976 6.032-1.04 1.749-9.359-5.659a19.2 19.2 0 00-.217 2.753v14.239h4.038a1.015 1.015 0 011.01 1.017v4.943a4.059 4.059 0 003.028-3.924z"/>
    <path fill="#6f49e4" d="M44 30h-4a1 1 0 01-1-1v-1.625l-.094-.039-1.147 1.149a1.029 1.029 0 01-1.414 0l-2.83-2.829a1 1 0 010-1.415l1.148-1.148-.038-.093H33a1 1 0 01-1-1v-4a1 1 0 011-1h1.625l.038-.094-1.148-1.147a1 1 0 010-1.414l2.83-2.83a1 1 0 011.414 0l1.147 1.149.094-.039V11a1 1 0 011-1h4a1 1 0 011 1v1.625l.094.038 1.147-1.148a1.03 1.03 0 011.414 0l2.83 2.83a1 1 0 010 1.414l-1.149 1.147.04.095H51a1 1 0 011 1v4a1 1 0 01-1 1h-1.625l-.039.094 1.148 1.147a.991.991 0 01.292.707 1 1 0 01-.292.707l-2.829 2.83a1 1 0 01-.707.292.994.994 0 01-.707-.292l-1.148-1.148-.095.04V29A1 1 0 0144 30zm-5.33-4.843a.988.988 0 01.381.076l1.33.547a1 1 0 01.619.926V28h2v-1.294a1 1 0 01.619-.925l1.33-.547a.984.984 0 01.38-.076 1 1 0 01.708.294l.913.913 1.414-1.414-.913-.913a.994.994 0 01-.218-1.088l.547-1.33a1 1 0 01.926-.62H50v-2h-1.294a1 1 0 01-.925-.619l-.547-1.33a.992.992 0 01.218-1.087l.913-.913-1.415-1.415-.913.913a1.01 1.01 0 01-.709.294.986.986 0 01-.379-.075l-1.33-.548a1 1 0 01-.619-.926V12h-2v1.294a1 1 0 01-.619.925l-1.33.548a.99.99 0 01-.38.075 1 1 0 01-.708-.294l-.913-.912-1.414 1.414.913.913a.994.994 0 01.219 1.087l-.548 1.33a1 1 0 01-.926.62H34v2h1.294a1 1 0 01.925.619l.548 1.33a1 1 0 01-.219 1.088l-.913.913 1.415 1.414.913-.913a1 1 0 01.707-.294z"/>
    <path fill="#6f49e4" d="M42 24a4 4 0 114-4 4 4 0 01-4 4zm0-6a2 2 0 102 2 2 2 0 00-2-2zM9 14H7v-2.1a4.945 4.945 0 01-1.753-.732l-1.49 1.49-1.414-1.415 1.49-1.49A4.958 4.958 0 013.1 8H1V6h2.1a4.947 4.947 0 01.733-1.753l-1.49-1.49 1.414-1.414 1.49 1.49A4.947 4.947 0 017 2.1V0h2v2.1a4.958 4.958 0 011.753.733l1.49-1.49 1.414 1.414-1.49 1.49A4.945 4.945 0 0112.9 6H15v2h-2.1a4.955 4.955 0 01-.732 1.753l1.49 1.49-1.414 1.414-1.49-1.49A4.955 4.955 0 019 11.9V14zM8 4a3 3 0 103 3 3 3 0 00-3-3zM7 18h2v2H7zM7 22h2v2H7zM7 26h2v2H7zM11 22h2v2h-2zM3 22h2v2H3z"/>
  </g>
</svg>