<?xml version="1.0" encoding="utf-8"?>
<svg xmlns="http://www.w3.org/2000/svg" width="56" height="56">
  <title>icon__innovation-scouting</title>
  <path fill="#e5ecf7" opacity=".6" d="M0 0h56v56H0z"/>
  <path fill="#4c7594" d="M37.334 28.933a6.539 6.539 0 01-6.459-5.6H16.801a3.734 3.734 0 01-.934-7.348v-.055-.063a3.727 3.727 0 013.712-3.734h.139a3.732 3.732 0 013.615-2.8 3.662 3.662 0 011.318.245 3.711 3.711 0 016.7 0 3.664 3.664 0 011.316-.245 3.732 3.732 0 013.615 2.8h.138a3.754 3.754 0 013.713 3.734v.117a3.734 3.734 0 01-.932 7.349h-.934V28a.934.934 0 01-.933.933zm-4.572-5.6a4.654 4.654 0 003.639 3.639v-3.638zm-15.985-5.6a1.867 1.867 0 00.024 3.734h22.4a1.867 1.867 0 00.026-3.734l-.131.016h-.08a.917.917 0 01-.734-.369.928.928 0 01-.135-.884 1.83 1.83 0 00.12-.629A1.869 1.869 0 0036.401 14a1.806 1.806 0 00-.634.123.935.935 0 01-1.249-.951c0-.016.009-.081.013-.114v-.015a1.817 1.817 0 00-.547-1.3 1.854 1.854 0 00-2.574-.048.933.933 0 01-1.562-.623 1.852 1.852 0 00-3.7 0 .933.933 0 01-.932.869.927.927 0 01-.63-.246 1.858 1.858 0 00-3.119 1.372c0 .01 0 .033.008.055s.006.041.007.05a.933.933 0 01-1.249.95 1.839 1.839 0 00-.634-.121 1.869 1.869 0 00-1.865 1.866 1.814 1.814 0 00.122.633.934.934 0 01-.135.884.917.917 0 01-.734.369h-.08l-.129-.015zM17.734 56.001h-8.4a.935.935 0 01-.934-.934v-7.144L.2 37.442a.936.936 0 01-.2-.575V16.334a3.267 3.267 0 016.533 0v11.28l11.86 11.86a.925.925 0 01.274.66v14.933a.935.935 0 01-.933.934zM3.267 14.933a1.4 1.4 0 00-1.4 1.4v20.212l8.2 10.481a.936.936 0 01.2.575v6.533H16.8V40.52l-8.291-8.29A1.706 1.706 0 006.1 34.647l5.76 5.76-1.32 1.319-5.761-5.759a3.55 3.55 0 01-1.046-2.527 3.6 3.6 0 012.559-3.426L4.94 28.66a.924.924 0 01-.273-.66V16.334a1.4 1.4 0 00-1.4-1.401zM46.666 56.001h-8.4a.935.935 0 01-.933-.934V40.133a.924.924 0 01.273-.66l11.86-11.86V16.334a3.267 3.267 0 016.534 0v20.533a.932.932 0 01-.2.575l-8.2 10.481v7.144a.935.935 0 01-.934.934zm2.027-24.267a1.715 1.715 0 00-1.2.5l-8.291 8.29v13.61h6.531V47.6a.936.936 0 01.2-.575l8.2-10.481v-20.21a1.4 1.4 0 10-2.8 0V28a.927.927 0 01-.273.66l-1.353 1.353a3.6 3.6 0 012.559 3.426 3.55 3.55 0 01-1.046 2.528l-5.761 5.76-1.319-1.32 5.761-5.761a1.707 1.707 0 00-1.207-2.913zM27.067 3.733h1.867V5.6h-1.867zM27.067 0h1.867v1.867h-1.867zM23.333 0H25.2v1.867h-1.867zM30.8 0h1.867v1.867H30.8zM27.067 28h1.867v1.867h-1.867zM27.067 31.733h1.867V33.6h-1.867zM30.8 31.733h1.867V33.6H30.8zM23.333 31.733H25.2V33.6h-1.867z"/>
</svg>