<?xml version="1.0" encoding="utf-8"?>
<svg xmlns="http://www.w3.org/2000/svg" width="55.138" height="55.463">
  <title>icon neoVenture Scaling</title>
  <g>
    <rect width="100%" height="100%" fill="#E5ECF7"></rect>
    <path id="Shape" fill="#4c7594" d="M11.4 25.948a.873.873 0 01-.526-.173L.351 17.991l.009-.013A.847.847 0 010 17.3V8.65a.881.881 0 01.114-.428.861.861 0 01.241-.259v-.006L10.874.173A.871.871 0 0111.4 0a.9.9 0 01.393.091.715.715 0 01.106.07l.024.018V.173l10.526 7.785v.006a.831.831 0 01.241.259.856.856 0 01.112.427v8.649a.846.846 0 01-.359.68l.009.013-10.526 7.783a.874.874 0 01-.526.173zm-3.623-7.784l3.623 5.36 3.624-5.36zm9.354 0l-2.162 3.2 4.323-3.2h-2.161zm-13.623 0l4.324 3.2-2.162-3.2zm17.538-6.391l-2.836 4.661h2.836v-4.662zM11.4 10.331l-3.713 6.1h7.426zm-9.646 1.441v4.662H4.59zm11.194-2.258l3.713 6.1 3.713-6.1h-7.426zm-10.523 0l3.713 6.1 3.713-6.1H2.426zM12.277 2.6v5.19h7.015zm-1.754 0L3.508 7.785h7.015z" transform="rotate(90 -.322 30.097)"/>
    <path id="Path" fill="#4c7594" d="M54.219 0H0v1.849h53.3v53.614h1.838V.924A.921.921 0 0054.219 0z"/>
    <path id="Path-2" data-name="Path" fill="#4c7594" d="M1.218 25.273L21.286 3.006v2.276h1.723V.88a.871.871 0 00-.861-.88H17.84v1.761h2.228L0 24.028z" transform="translate(27.822 4.402)"/>
    <path id="Path-3" data-name="Path" fill="#4c7594" d="M11.809 0l-1.218 1.245 1.976 2.019H0v1.76h12.566l-1.975 2.019 1.218 1.245 3.446-3.521a.893.893 0 000-1.245z" transform="translate(36.185 36.353)"/>
    <path id="Path-4" data-name="Path" fill="#4c7594" d="M4.917 19.368V3.006l1.975 2.018L8.111 3.78 4.664.258a.848.848 0 00-1.218 0L0 3.78l1.218 1.244 1.976-2.018v16.362z" transform="translate(12.314 3.521)"/>
  </g>
</svg>