<?xml version="1.0" encoding="utf-8"?>
<svg xmlns="http://www.w3.org/2000/svg" width="64" height="64">
<title>icon__goals--foundation</title>
  <path fill="#5fe0b7" opacity=".14" d="M0 0h64v64H0z"/>
  <path fill="#3cd5a5" d="M31 60H3a1 1 0 01-1-1v-4a1 1 0 011-1h1V15.971a12.923 12.923 0 013.808-9.194l2.07-2.07a2.961 2.961 0 012.102-.886 3.048 3.048 0 011.168.236A2.954 2.954 0 0115 6.829v2.644l19.565 13.412a1 1 0 01.436.825v1.28a7.982 7.982 0 01-11.167 7.346l6.115 18.347a1.02 1.02 0 01.047.29.056.056 0 000 .014.051.051 0 010 .013v3h1a1 1 0 011 1v4A1 1 0 0131 60zM4 56v2h26v-2H4zm2-4v2h22v-2H6zm8.12-40.706l-1.655 1.655A4.968 4.968 0 0011 16.485V50h16.612l-6.4-19.208-4.737-2.943 1.057-1.7 6.683 4.153a5.871 5.871 0 002.774.7 6.036 6.036 0 003.092-.861A5.948 5.948 0 0033 24.99v-.753L14.12 11.294zm-2.138-5.467a.947.947 0 00-.689.3L9.222 8.193A10.934 10.934 0 006 15.971V50h3V16.485a6.955 6.955 0 012.051-4.95L13 9.585V6.829a.979.979 0 00-.616-.924 1.112 1.112 0 00-.402-.078z"/>
  <path fill="#3cd5a5" d="M15 17h2v2h-2zM61 9h-8a1 1 0 01-.868-1.5l4-7A.987.987 0 0157 .037a.985.985 0 01.868.467l4 7A1 1 0 0161 9zm-4-5.984L54.724 7h4.551zM40 24a5 5 0 115-5 5.006 5.006 0 01-5 5zm0-8a3 3 0 103 3 3 3 0 00-3-3zM54 38a5 5 0 115-5 5.006 5.006 0 01-5 5zm0-8a3 3 0 103 3 3 3 0 00-3-3zM40 53a5 5 0 115-5 5.006 5.006 0 01-5 5zm0-8a3 3 0 103 3 3 3 0 00-3-3zM28.707 9.707L31.5 6.914l2.793 2.793 1.414-1.414L32.914 5.5l2.793-2.793-1.414-1.414L31.5 4.086l-2.793-2.793-1.414 1.414L30.086 5.5l-2.793 2.793zM60.293 51.293L57.5 54.086l-2.793-2.793-1.414 1.414 2.793 2.793-2.793 2.793 1.414 1.414 2.793-2.793 2.793 2.793 1.414-1.414-2.793-2.793 2.793-2.793z"/>
  <path fill="#3cd5a5" d="M40.707 5.793l-1.414 1.414L51.586 19.5 39.293 31.793a1 1 0 000 1.414l12.5 12.5 1.414-1.414L41.414 32.5l12.293-12.293a1 1 0 000-1.414z"/>
</svg>