<?xml version="1.0" encoding="utf-8"?>
<svg xmlns="http://www.w3.org/2000/svg" width="56" height="56">
 <title>icon__devops-transformation</title>
  <path fill="#e5ecf7" opacity=".6" d="M0 0h56v56H0z"/>
  <path fill="#4c7594" d="M28 56a5.6 5.6 0 01-5.589-5.368 23.085 23.085 0 01-6.448-2.689 5.594 5.594 0 01-7.908-7.906 23.216 23.216 0 01-2.676-6.449 5.593 5.593 0 010-11.177 23.222 23.222 0 012.676-6.449 5.594 5.594 0 017.91-7.906 23.049 23.049 0 016.447-2.689 5.592 5.592 0 0111.175 0 23.061 23.061 0 016.449 2.689 5.593 5.593 0 017.908 7.906 23.216 23.216 0 012.676 6.449 5.593 5.593 0 010 11.177 23.166 23.166 0 01-2.683 6.476 5.593 5.593 0 01-7.911 7.9 23.148 23.148 0 01-6.443 2.661A5.6 5.6 0 0128 56zm0-9.333a3.753 3.753 0 00-.724.073 1.521 1.521 0 00-.166.046l-.1.03-.036.01a3.358 3.358 0 00-.371.117 2.516 2.516 0 00-.251.123l-.075.04-.081.042c-.066.034-.134.069-.2.109a3.818 3.818 0 00-.358.271l-.042.034a3.46 3.46 0 00-.122.1 3.707 3.707 0 00-.371.4l-.032.039-.031.038a3.761 3.761 0 00-.735 1.874.044.044 0 010 .01.039.039 0 000 .013c0 .04-.009.081-.015.121a1.781 1.781 0 00-.021.239 3.733 3.733 0 107.466 0 1.827 1.827 0 00-.021-.243l-.016-.129a.034.034 0 000-.01.034.034 0 010-.01 3.764 3.764 0 00-.739-1.87l-.037-.045-.025-.031a3.869 3.869 0 00-.373-.4 2.172 2.172 0 00-.106-.089l-.049-.04a3.687 3.687 0 00-.366-.276 2.41 2.41 0 00-.2-.109l-.069-.036-.053-.029a2.839 2.839 0 00-.281-.139 3.223 3.223 0 00-.338-.107l-.059-.016-.1-.03a1.5 1.5 0 00-.174-.048 3.746 3.746 0 00-.729-.073zm-15.867-8.4a5.553 5.553 0 012.479.58l.014.006.014.006a5.729 5.729 0 01.715.43l.058.043.038.029a5.141 5.141 0 011.187 1.188l.011.014c.021.027.041.053.06.081a5.716 5.716 0 01.431.718c0 .007.006.014.01.021a5.585 5.585 0 01-.059 5.086 21.272 21.272 0 005.547 2.318 5.576 5.576 0 011.971-2.834l.082-.061a5.615 5.615 0 01.681-.435l.029-.014a.373.373 0 00.035-.017 5.484 5.484 0 01.682-.295l.052-.019.081-.029a5.616 5.616 0 01.758-.191l.083-.013.083-.013A5.513 5.513 0 0128 44.8a5.8 5.8 0 01.827.066l.066.01.1.015a5.593 5.593 0 01.762.191l.074.027.047.018a5.76 5.76 0 01.7.3l.023.011.023.011a5.462 5.462 0 01.695.443l.065.048a5.58 5.58 0 011.981 2.837 21.317 21.317 0 005.553-2.3.3.3 0 01-.017-.037.3.3 0 00-.015-.034 5.64 5.64 0 01-.31-.713c-.012-.034-.022-.069-.031-.1l-.023-.077a6.128 6.128 0 01-.186-2.575c.018-.108.044-.215.069-.318v-.008l.019-.08a5.69 5.69 0 01.17-.574c.052-.143.1-.26.146-.368a5.749 5.749 0 01.309-.588l.049-.085c.041-.071.082-.143.129-.212a5.538 5.538 0 01.632-.773.1.1 0 00.013-.015l.011-.013a5.658 5.658 0 01.65-.551l.033-.025.058-.043a5.631 5.631 0 01.714-.428l.048-.023a5.537 5.537 0 012.455-.57 5.616 5.616 0 012.638.657 21.272 21.272 0 002.3-5.564 5.579 5.579 0 01-2.837-1.981l-.047-.065a5.666 5.666 0 01-.443-.7c0-.009-.009-.018-.013-.026l-.009-.019a5.58 5.58 0 01-.3-.7l-.018-.047c-.009-.025-.019-.049-.027-.074a5.7 5.7 0 01-.191-.762c-.007-.034-.011-.068-.016-.1l-.009-.059A5.509 5.509 0 0144.8 28a5.286 5.286 0 01.07-.826c.008-.063.016-.114.024-.161a5.321 5.321 0 01.191-.764l.029-.08.013-.035a5.6 5.6 0 01.306-.71l.009-.019.009-.019a5.5 5.5 0 01.447-.7l.02-.027.022-.029a5.568 5.568 0 012.837-1.986 21.373 21.373 0 00-2.305-5.55 5.615 5.615 0 01-2.605.642 5.524 5.524 0 01-2.485-.586h-.016a5.723 5.723 0 01-.721-.433l-.056-.042-.036-.027a5.537 5.537 0 01-.645-.547 5.632 5.632 0 01-.547-.645l-.025-.033-.043-.058a5.628 5.628 0 01-.433-.721l-.007-.016a5.53 5.53 0 01-.585-2.486 5.6 5.6 0 01.641-2.6 21.23 21.23 0 00-5.546-2.318 5.576 5.576 0 01-1.971 2.834l-.082.062a5.708 5.708 0 01-.681.434l-.031.015-.032.016a5.438 5.438 0 01-.682.295l-.056.021-.077.028a5.581 5.581 0 01-.758.191l-.1.015-.066.01A5.509 5.509 0 0128 11.2a5.567 5.567 0 01-.825-.068l-.061-.009-.1-.016a5.638 5.638 0 01-.758-.191l-.074-.027-.059-.022a5.539 5.539 0 01-.682-.295l-.032-.015-.032-.015a5.724 5.724 0 01-.681-.434l-.051-.039-.031-.023a5.571 5.571 0 01-1.971-2.834 21.289 21.289 0 00-5.55 2.318 5.61 5.61 0 01.641 2.6 5.544 5.544 0 01-.586 2.488l-.007.016a5.674 5.674 0 01-.433.721l-.042.056-.027.036a5.157 5.157 0 01-1.191 1.192l-.031.023-.059.044a5.548 5.548 0 01-.722.433l-.015.006a5.583 5.583 0 01-5.09-.057 21.378 21.378 0 00-2.306 5.55 5.584 5.584 0 012.837 1.986l.042.056a5.728 5.728 0 01.447.7l.005.012c0 .009.009.019.014.028a5.6 5.6 0 01.306.71l.018.048c.009.024.018.046.025.068a5.607 5.607 0 01.191.764c.006.031.01.062.014.094l.01.068a5.038 5.038 0 010 1.651l-.005.038a3.991 3.991 0 01-.019.123 5.728 5.728 0 01-.191.764l-.024.066-.019.05a5.588 5.588 0 01-.306.71l-.009.019-.009.019a5.565 5.565 0 01-.447.7l-.026.035-.015.021a5.568 5.568 0 01-2.837 1.986 21.349 21.349 0 002.306 5.55 5.609 5.609 0 012.6-.637zm.022 1.882a3.71 3.71 0 00-.424.025h-.053a3.748 3.748 0 00-1.85.78.037.037 0 01-.011.006h-.01l-.1.074a2.173 2.173 0 00-.218.183 3.734 3.734 0 005.278 5.282 2.247 2.247 0 00.181-.215l.078-.1a.058.058 0 000-.011.038.038 0 01.006-.013 3.735 3.735 0 00.78-1.85v-.046a3.663 3.663 0 00.02-.6c0-.029 0-.057-.007-.084s0-.027 0-.04a3.522 3.522 0 00-.078-.539 1 1 0 00-.028-.1l-.019-.06a3.536 3.536 0 00-.161-.48 1.674 1.674 0 00-.084-.161 2.165 2.165 0 01-.046-.082l-.038-.074a2.578 2.578 0 00-.159-.281 3.812 3.812 0 00-.45-.547 3.664 3.664 0 00-.547-.45 2.693 2.693 0 00-.261-.148l-.091-.048-.09-.05c-.05-.028-.1-.058-.155-.081a3.808 3.808 0 00-.474-.158l-.07-.022c-.031-.01-.062-.021-.095-.028a3.537 3.537 0 00-.533-.078l-.046.007c-.025 0-.05-.006-.075-.007a3.14 3.14 0 00-.17-.004zm31.654 0h-.143c-.033 0-.067.005-.1.009l-.057.006a3.7 3.7 0 00-.512.072 1.13 1.13 0 00-.117.035l-.067.021a3.593 3.593 0 00-.461.153 1.547 1.547 0 00-.148.078l-.085.047-.078.04a2.766 2.766 0 00-.294.165 3.782 3.782 0 00-.419.344.851.851 0 01-.058.047.713.713 0 00-.07.059.405.405 0 00-.034.04.49.49 0 01-.029.035 3.641 3.641 0 00-.394.483 1.934 1.934 0 00-.11.194 2.328 2.328 0 00-.05.1l-.044.079a2.593 2.593 0 00-.126.245 2.94 2.94 0 00-.111.325l-.019.063-.027.087a1.948 1.948 0 00-.049.17 3.659 3.659 0 00-.069.476c0 .02 0 .04-.006.06 0 .038-.009.078-.01.117a3.635 3.635 0 00.021.562v.084a3.74 3.74 0 00.791 1.844.034.034 0 01.005.01.034.034 0 00.005.01l.073.094a1.962 1.962 0 00.171.205 3.733 3.733 0 105.28-5.279 2.006 2.006 0 00-.2-.166l-.093-.073-.011-.006a.038.038 0 01-.012-.006 3.761 3.761 0 00-1.849-.8h-.071a3.73 3.73 0 00-.423-.031zM50.4 24.267a1.844 1.844 0 00-.245.022 2.787 2.787 0 01-.128.015h-.019a3.764 3.764 0 00-1.87.739l-.045.037-.029.025a3.739 3.739 0 00-.406.373 2.172 2.172 0 00-.089.106l-.04.049a3.663 3.663 0 00-.276.367 2.56 2.56 0 00-.106.191l-.039.074-.04.076a2.7 2.7 0 00-.128.261 3.245 3.245 0 00-.107.336l-.015.062-.03.1a1.563 1.563 0 00-.049.178 3.749 3.749 0 00-.073.723 3.682 3.682 0 00.074.722 1.712 1.712 0 00.048.172l.03.1.019.068a3.241 3.241 0 00.1.329 2.515 2.515 0 00.129.262l.039.073.042.08c.033.063.065.127.1.187a3.687 3.687 0 00.276.366l.039.048c.029.037.058.074.09.108a3.792 3.792 0 00.4.373l.028.024.047.039a3.765 3.765 0 001.871.739h.019c.043 0 .085.01.127.015a1.831 1.831 0 00.244.022 3.733 3.733 0 100-7.466zm-44.8 0a3.733 3.733 0 100 7.466 1.853 1.853 0 00.251-.023l.121-.015h.019a3.764 3.764 0 001.87-.739l.045-.037.029-.025a3.739 3.739 0 00.406-.373c.031-.034.061-.071.089-.106l.04-.049a3.773 3.773 0 00.276-.367c.044-.069.082-.143.119-.215l.026-.05.031-.057a2.8 2.8 0 00.138-.279 2.989 2.989 0 00.1-.322l.021-.075.029-.1a1.521 1.521 0 00.049-.176A3.745 3.745 0 009.333 28a3.9 3.9 0 00-.072-.724 1.638 1.638 0 00-.048-.17 2.771 2.771 0 01-.031-.1l-.012-.043a3.309 3.309 0 00-.111-.354 2.857 2.857 0 00-.133-.268l-.037-.068-.034-.073c-.035-.067-.069-.134-.109-.2a3.732 3.732 0 00-.276-.367l-.045-.055a2.018 2.018 0 00-.084-.1 3.877 3.877 0 00-.4-.373l-.026-.021-.049-.04a3.763 3.763 0 00-1.87-.739h-.019c-.043 0-.085-.01-.127-.015a1.86 1.86 0 00-.25-.023zM12.133 8.4a3.733 3.733 0 00-2.64 6.372 2.236 2.236 0 00.239.2l.091.069h.005a3.708 3.708 0 00.513.335l.043.023c.044.024.09.048.137.069.109.054.22.1.333.139a3.99 3.99 0 00.546.154h.018a3.972 3.972 0 00.714.065 3.744 3.744 0 002.64-1.058 3.836 3.836 0 00.448-.545 3.072 3.072 0 00.18-.323l.033-.064.044-.079a1.354 1.354 0 00.068-.129 3.536 3.536 0 00.168-.5l.018-.058c.006-.019.017-.052.023-.078a3.8 3.8 0 00.08-.55v-.033c0-.026.006-.053.007-.08a3.726 3.726 0 00-.02-.606.4.4 0 000-.041 3.741 3.741 0 00-.78-1.851.046.046 0 01-.005-.011.042.042 0 00-.006-.013l-.069-.089a2.256 2.256 0 00-.189-.226A3.709 3.709 0 0012.133 8.4zm31.734 0a3.718 3.718 0 00-2.641 1.093 2.151 2.151 0 00-.186.221l-.073.093a.048.048 0 000 .011.045.045 0 01-.006.013 3.745 3.745 0 00-.78 1.851v.042a3.819 3.819 0 00-.021.606c0 .021 0 .042.006.063s0 .033.005.05a3.587 3.587 0 00.079.55c.007.028.016.054.024.08s.013.038.018.058a3.716 3.716 0 00.167.5 1.353 1.353 0 00.067.127l.045.081.025.05a3.044 3.044 0 00.19.338 3.618 3.618 0 003.088 1.6 3.972 3.972 0 00.718-.065 3.864 3.864 0 00.559-.159 3.462 3.462 0 00.328-.136c.053-.024.106-.053.157-.08l.028-.015a3.588 3.588 0 00.511-.332h.006l.087-.066a2.176 2.176 0 00.242-.2A3.733 3.733 0 0043.867 8.4zM28 1.866A3.738 3.738 0 0024.267 5.6a1.773 1.773 0 00.021.238c.006.041.011.081.015.122a.034.034 0 000 .01.046.046 0 010 .012 3.748 3.748 0 00.735 1.874.948.948 0 00.04.049l.023.028a3.725 3.725 0 00.371.4c.037.035.078.067.117.1l.047.037a3.755 3.755 0 00.364.273c.063.04.131.075.2.109l.082.043.075.04a2.517 2.517 0 00.251.123 3.1 3.1 0 00.36.114l.047.013.091.028a1.452 1.452 0 00.173.048 3.608 3.608 0 001.447 0 1.521 1.521 0 00.166-.046l.1-.03.047-.013a3.1 3.1 0 00.36-.114 2.517 2.517 0 00.251-.123l.075-.04.081-.042c.066-.034.134-.069.2-.109a3.628 3.628 0 00.358-.271l.049-.039c.038-.031.078-.062.116-.1a3.758 3.758 0 00.37-.4l.021-.034.035-.042a3.763 3.763 0 00.736-1.874.037.037 0 010-.01.041.041 0 000-.012c0-.041.009-.081.015-.122a1.778 1.778 0 00.021-.239A3.737 3.737 0 0028 1.866z"/>
  <path fill="#4c7594" d="M42 35.467H25.2a2.8 2.8 0 01-2.8-2.8V30.8h-6.534a.933.933 0 01-.66-1.593l3.46-3.46V19.6a2.8 2.8 0 012.801-2.8h7.466a2.8 2.8 0 012.8 2.8v2.8h4.666a2.8 2.8 0 012.8 2.8v5.213l3.46 3.46a.933.933 0 01-.66 1.593zm-16.8-11.2a.935.935 0 00-.933.934v7.466a.934.934 0 00.933.933h14.547l-2.14-2.14a.924.924 0 01-.274-.66v-5.6a.935.935 0 00-.934-.934zm-3.733-5.6a.935.935 0 00-.934.933v6.533a.924.924 0 01-.273.66l-2.14 2.14h4.28V25.2a2.8 2.8 0 012.8-2.8h4.667v-2.8a.935.935 0 00-.934-.934zM23.333 37.333H25.2V39.2h-1.867zM27.067 37.333h1.867V39.2h-1.867zM30.8 37.333h1.867V39.2H30.8z"/>
</svg>