<?xml version="1.0" encoding="utf-8"?>
<svg xmlns="http://www.w3.org/2000/svg" width="56" height="56.5">
	<title>icon__tranformation-acceleration</title>
  <path fill="#e5ecf7" opacity=".6" d="M0 .5h56v56H0z"/>
  <path fill="#4c7594" d="M17.5 50.4a5.817 5.817 0 01-6 5.6 5.817 5.817 0 01-6-5.6 5.817 5.817 0 016-5.6 5.817 5.817 0 016 5.6zm-10 0a3.878 3.878 0 004 3.734 3.878 3.878 0 004-3.734 3.878 3.878 0 00-4-3.733 3.878 3.878 0 00-4 3.733zM51.5 5.6a5.817 5.817 0 01-6 5.6 5.817 5.817 0 01-6-5.6 5.817 5.817 0 016-5.6 5.817 5.817 0 016 5.6zm-10 0a3.878 3.878 0 004 3.734 3.878 3.878 0 004-3.734 3.878 3.878 0 00-4-3.733 3.878 3.878 0 00-4 3.733zM13.793 27.726l1.414-1.32-3-2.8a1.05 1.05 0 00-1.414 0l-3 2.8 1.414 1.32 1.293-1.207v16.414h2V26.519zM26.207 31.074l-1.414 1.319 3 2.8a1.05 1.05 0 001.414 0l3-2.8-1.414-1.319L29.5 32.28V15.867h-2V32.28zM10.5 8.867v12.6h2v-12.6a7.271 7.271 0 017.5-7 7.271 7.271 0 017.5 7v1.947l-1.293-1.207-1.414 1.32 3 2.8a1.05 1.05 0 001.414 0l3-2.8-1.414-1.32-1.293 1.207V8.867C29.5 3.978 25.238 0 20 0s-9.5 3.978-9.5 8.867zM49.207 16.14l-3-2.8a1.05 1.05 0 00-1.414 0l-3 2.8 1.414 1.32 1.293-1.207V28h2V16.253l1.293 1.207zM46.5 47.133v-14.08l1.293 1.207 1.414-1.32-3-2.8a1.05 1.05 0 00-1.414 0l-3 2.8 1.414 1.32 1.293-1.207v14.08a7.271 7.271 0 01-7.5 7 7.271 7.271 0 01-7.5-7v-9.8h-2v9.8C27.5 52.022 31.762 56 37 56s9.5-3.978 9.5-8.867z"/>
</svg>