<?xml version="1.0" encoding="utf-8"?>
<svg xmlns="http://www.w3.org/2000/svg" width="56" height="57">
  <title>icon__smart-efficiencies</title>
  <path fill="#e5ecf7" opacity=".6" d="M0 0h56v57H0z"/>
  <path fill="#4c7594" d="M1.723.844H0v51.13a4.325 4.325 0 004.308 4.333h50.83v-1.733H4.308a2.6 2.6 0 01-2.585-2.6v-6.93h53.415v-1.736H1.723z"/>
  <path fill="#4c7594" d="M20.958 46.655a.833.833 0 00-.413-.011L5.169 50.165l.371 1.719 15.167-3.474 15.171 4.344a.824.824 0 00.227.032.832.832 0 00.218-.029l16.23-4.4-.436-1.7-16.005 4.336zM38.77 36.938h-5.169a.86.86 0 01-.862-.857V34.09l-6.893-2.743v1.3a.861.861 0 01-.862.858h-5.169a.861.861 0 01-.862-.858v-2.16l-4.736-3.856-3.027 3.765a3.436 3.436 0 11-2.574-1.172 3.38 3.38 0 011.142.208l3.125-3.887-2.851-2.322H5.17a.861.861 0 01-.862-.858v-5.142a.86.86 0 01.862-.858h5.169a.86.86 0 01.862.857v4.743l2.758 2.24 5.531-6.879a3.393 3.393 0 01-.536-1.818 3.446 3.446 0 016.892 0 2.08 2.08 0 01-.025.282c0 .034-.009.068-.013.1l7.614 5.3a3.41 3.41 0 014.965-.588l8.677-10.984a3.393 3.393 0 01-.54-1.824 3.446 3.446 0 113.446 3.428 3.4 3.4 0 01-1.64-.432l-8.883 11.249-.054-.042a3.392 3.392 0 01.238 1.226 3.446 3.446 0 01-6.892 0 2.08 2.08 0 01.025-.282c0-.034.009-.068.013-.1l-7.614-5.3a3.395 3.395 0 01-4.411.966l-5.46 6.789 3.66 2.981v-.763a.86.86 0 01.862-.857h5.169a.86.86 0 01.862.857v1.991l6.893 2.743v-1.3a.861.861 0 01.862-.858h5.169a.861.861 0 01.862.858l8.615-11.429v-2.296a.86.86 0 01.862-.858h5.169a.86.86 0 01.862.857v5.143a.861.861 0 01-.862.858h-5.169a.861.861 0 01-.861-.858l-8.616 11.43v2.286a.86.86 0 01-.861.857zm-4.308-5.143v3.429h3.446v-3.429zm-25.846-.857a1.714 1.714 0 101.723 1.714 1.72 1.72 0 00-1.723-1.714zm12.061-2.573v3.43h3.446v-3.43zm15.508-6.857a1.715 1.715 0 101.723 1.715 1.721 1.721 0 00-1.723-1.714zm13.784-3.429v3.429h3.446V18.08zm-43.939 0v3.429h3.447V18.08zm16.37-4.285a1.715 1.715 0 101.723 1.715 1.721 1.721 0 00-1.723-1.715zM49.97 6.08a1.714 1.714 0 101.723 1.715A1.721 1.721 0 0049.97 6.08zM3.446.844h1.723v1.761H3.446zM6.892.844h1.723v1.761H6.892zM10.338.844h1.723v1.761h-1.723zM6.892 4.365h1.723v1.761H6.892zM10.338 4.365h1.723v1.761h-1.723zM13.785 4.365h1.723v1.761h-1.723z"/>
  <path fill="#4c7594" d="M36.185 12.289h1.723v-1.761h1.723v-1.76h-1.723V7.007h-1.723v1.761h-1.723v1.76h1.723z"/>
</svg>