<?xml version="1.0" encoding="utf-8"?>
<svg xmlns="http://www.w3.org/2000/svg" width="56" height="57.002">
	<title>icon__scalable-partner-ecosystem</title>
  <path fill="#e5ecf7" opacity=".6" d="M0 0h56v57H0z"/>
  <path d="M51.333 57.002H4.667A4.714 4.714 0 010 52.252v-1.9a.943.943 0 01.933-.95H2.8v-33.25a4.714 4.714 0 014.666-4.75H33.6v-2.85h-1.867a.935.935 0 01-.847-.553.964.964 0 01.139-1.015l5.6-6.65a.953.953 0 011.417 0l5.6 6.65a.966.966 0 01.139 1.015.937.937 0 01-.847.553h-1.867v2.85h7.467a4.714 4.714 0 014.667 4.75v33.25h1.866a.943.943 0 01.933.95v1.9a4.714 4.714 0 01-4.667 4.75zm-49.467-5.7v.95a2.829 2.829 0 002.8 2.85h46.667a2.829 2.829 0 002.8-2.85v-.95H1.866zm5.6-38a2.828 2.828 0 00-2.8 2.85v33.25h46.667v-33.25a2.828 2.828 0 00-2.8-2.85h-7.466v2.85H47.6a.943.943 0 01.934.95v29.45a.943.943 0 01-.934.95H8.4a.943.943 0 01-.934-.95v-29.45a.943.943 0 01.934-.95h25.2v-2.85zm1.867 4.749v27.55h37.333V18.052h-5.6v21.85h1.867v1.9H13.067v-1.9h1.866v-7.6a.943.943 0 01.933-.95h5.6a.943.943 0 01.933.95v7.6h1.867v-18.05a.943.943 0 01.933-.95h5.6a.943.943 0 01.933.95v18.05H33.6v-21.85zm28-15.64l-3.571 4.24h.771a.943.943 0 01.933.95v32.3H39.2V7.602a.943.943 0 01.933-.95h.767zm-11.2 20.39v17.1h3.734v-17.1zM16.8 33.252v6.651h3.734v-6.651z" fill="#4c7594"/>
</svg>