<?xml version="1.0" encoding="utf-8"?>
<svg xmlns="http://www.w3.org/2000/svg" width="64" height="64">
  <title>icon__goals--efficiencies</title>
  <path fill="#76ee54" opacity=".14" d="M0 0h64v64H0z"/>
  <path fill="#68d947" d="M61 23H41a1 1 0 01-1-1V2a1 1 0 011-1h20a1 1 0 011 1v20a1 1 0 01-1 1zM42 3v18h18V3zM12 61a11 11 0 1111-11 11.012 11.012 0 01-11 11zm0-20a9 9 0 109 9 9.01 9.01 0 00-9-9zM50.5 62a1.013 1.013 0 01-.5-.133l-10.5-6A.99.99 0 0139 55V42.995a.991.991 0 01.5-.858l10.5-6a1.011 1.011 0 011 0l10.5 6a.992.992 0 01.5.858v12.01a.992.992 0 01-.5.858l-10.5 6a1.011 1.011 0 01-.5.137zm0-23.866L41 43.567v10.865l9.5 5.433 9.5-5.433V43.567l-9.5-5.433zM23.979 23H2.022a1.03 1.03 0 01-.879-.491.984.984 0 01-.015-.99L12.361 1.524a.968.968 0 01.82-.524.79.79 0 01.084 0 1.023 1.023 0 01.894.536l10.723 20a.982.982 0 01-.03.982 1.031 1.031 0 01-.873.482zM13.234 4.116L3.748 21H22.29L13.234 4.116zM30.707 6l-1.414 1.487 3.293 3.462H25v2.1h7.586l-3.293 3.464L30.707 18l5-5.257a1.089 1.089 0 000-1.487zM30.707 55l5-5.257a1.089 1.089 0 000-1.487l-5-5.256-1.414 1.487 3.293 3.462H25v2.1h7.586l-3.293 3.464zM52 28v-3h-2.013v2H12.744a1 1 0 00-1.006 1v5.586l-3.315-3.293L7 31.707l5.033 5a1.011 1.011 0 001.423 0l5.033-5-1.423-1.414-3.315 3.293V29h37.242A1 1 0 0052 28z"/>
</svg>