<?xml version="1.0" encoding="utf-8"?>
<svg xmlns="http://www.w3.org/2000/svg" width="56" height="56">
  <title>icon__agile-coaching</title>
  <path fill="#e5ecf7" opacity=".6" d="M0 0h56v56H0z"/>
  <path fill="#4c7594" d="M41.125 50.749h14v1.75h-14z"/>
  <path fill="#4c7594" d="M51.625 56a.875.875 0 01-.618-1.493l2.881-2.882-2.881-2.881a.875.875 0 011.237-1.237l3.5 3.5a.874.874 0 010 1.237l-3.5 3.5a.873.873 0 01-.619.256zM31.5 8.75a.873.873 0 01-.619-.256l-3.5-3.5a.874.874 0 010-1.237l3.5-3.5a.875.875 0 011.238 1.237l-2.882 2.881 2.882 2.882A.875.875 0 0131.5 8.75z"/>
  <path fill="#4c7594" d="M28 52.5H0v-1.75h28a22.75 22.75 0 100-45.5V3.5a24.5 24.5 0 110 49z"/>
  <path fill="#4c7594" d="M15.3 48.956a24.507 24.507 0 018.231-45.049l.318 1.721a22.757 22.757 0 00-7.641 41.833z"/>
  <path fill="#4c7594" d="M28 43.75a15.752 15.752 0 01-5.559-30.491l.617 1.637a14 14 0 109.883 0l.617-1.637A15.753 15.753 0 0128 43.75z"/>
  <path fill="#4c7594" d="M25.375 12.249h5.25v1.75h-5.25z"/>
  <path fill="#4c7594" d="M27.125 13.124h1.75v3.5h-1.75z"/>
  <path fill="#4c7594" d="M28 40.25A12.25 12.25 0 1140.25 28 12.264 12.264 0 0128 40.25zm0-22.75A10.5 10.5 0 1038.5 28 10.512 10.512 0 0028 17.5z"/>
  <path fill="#4c7594" d="M33.506 21.256l1.237 1.237-4.374 4.375-1.238-1.237zM27.125 19.25h1.75V21h-1.75zM19.25 27.125H21v1.75h-1.75zM27.125 35h1.75v1.75h-1.75zM35 27.125h1.75v1.75H35z"/>
  <path fill="#4c7594" d="M28 31.5a3.5 3.5 0 113.5-3.5 3.5 3.5 0 01-3.5 3.5zm0-5.25A1.75 1.75 0 1029.75 28 1.752 1.752 0 0028 26.25z"/>
</svg>