<?xml version="1.0" encoding="utf-8"?>
<svg xmlns="http://www.w3.org/2000/svg" width="56" height="56">
  <title>icon__operating-model-desing</title>
  <path fill="#e5ecf7" opacity=".6" d="M0 0h56v56H0z"/>
  <g transform="translate(6)">
    <circle fill="#4c7594" cx="1.4" cy="1.4" r="1.4" transform="translate(21 3.267)"/>
    <path fill="#4c7594" d="M40.133 56H4.667A4.672 4.672 0 010 51.333v-39.2a4.672 4.672 0 014.667-4.667H14v-.933a.934.934 0 01.933-.933H18.5l-.139-.831a4.1 4.1 0 118.08 0L26.3 5.6h3.565a.934.934 0 01.933.933v.933h9.333a4.672 4.672 0 014.669 4.667v39.2A4.672 4.672 0 0140.133 56zM4.667 9.333a2.8 2.8 0 00-2.8 2.8v39.2a2.8 2.8 0 002.8 2.8h35.466a2.8 2.8 0 002.8-2.8v-39.2a2.8 2.8 0 00-2.8-2.8H30.8V11.2h9.333a.934.934 0 01.933.933v39.2a.934.934 0 01-.933.933H4.667a.934.934 0 01-.933-.933v-39.2a.934.934 0 01.933-.933H14V9.333zm.933 3.734V50.4h33.6V13.067h-8.4V14a.934.934 0 01-.933.933H14.933A.934.934 0 0114 14v-.933zm10.267-5.6v5.6h13.067v-5.6H25.2a.925.925 0 01-.711-.33.935.935 0 01-.208-.757l.319-1.919a2.23 2.23 0 10-4.4 0l.32 1.919a.932.932 0 01-.92 1.087z"/>
    <path fill="#4c7594" d="M12.406 44.14L11.2 45.347 9.993 44.14l-1.32 1.32 1.207 1.207-1.207 1.206 1.32 1.32 1.207-1.207 1.206 1.207 1.32-1.32-1.207-1.206 1.207-1.207zM12.793 27.34l-1.32 1.32 1.207 1.207-1.207 1.206 1.32 1.32L14 31.186l1.206 1.207 1.32-1.32-1.207-1.206 1.207-1.207-1.32-1.32L14 28.547zM30.8 44.8a2.8 2.8 0 112.8-2.8 2.8 2.8 0 01-2.8 2.8zm0-3.734a.934.934 0 10.933.934.935.935 0 00-.933-.934zM29.867 27.067a2.8 2.8 0 112.8-2.8 2.8 2.8 0 01-2.8 2.8zm0-3.734a.934.934 0 10.933.934.935.935 0 00-.933-.934zM17.733 40.133a2.8 2.8 0 112.8-2.8 2.8 2.8 0 01-2.8 2.8zm0-3.734a.934.934 0 10.933.934.935.935 0 00-.933-.934zM12.133 22.4a2.8 2.8 0 112.8-2.8 2.8 2.8 0 01-2.8 2.8zm0-3.734a.934.934 0 10.933.934.935.935 0 00-.933-.934z"/>
    <path fill="#4c7594" d="M18.227 26.957l12.679 6.762L15.32 44.977l1.093 1.513 16.8-12.133a.934.934 0 00-.107-1.58l-13.118-7 2.412-3.856v1.412h1.867v-4.667a.933.933 0 00-.933-.933h-4.667V19.6h2.982l-3.774 6.038a.934.934 0 00.353 1.319zM26.133 17.733H28V19.6h-1.867zM29.867 17.733h1.867V19.6h-1.867zM33.6 17.733h1.867V19.6H33.6z"/>
  </g>
</svg>