<?xml version="1.0" encoding="utf-8"?>
<svg xmlns="http://www.w3.org/2000/svg" width="56" height="56">
	<title>icon__technology-strategy</title>
  <path fill="#e5ecf7" opacity=".6" d="M0 0h56v56H0z"/>
  <path fill="#4c7594" d="M27.999 44.8a6.461 6.461 0 116.461-6.461 6.469 6.469 0 01-6.461 6.461zm0-11.077a4.616 4.616 0 104.616 4.616 4.621 4.621 0 00-4.616-4.616zM41.784 30.154a6.461 6.461 0 116.461-6.461 6.469 6.469 0 01-6.461 6.461zm0-11.077a4.616 4.616 0 104.616 4.616 4.621 4.621 0 00-4.616-4.616z"/>
  <path fill="#4c7594" d="M48.705 55.138a6.357 6.357 0 01-3.895-1.319 6.493 6.493 0 01-2.28-3.33l-29.95-2.643a6.5 6.5 0 01-2.3 3.252 6.371 6.371 0 01-3.851 1.284 6.433 6.433 0 112.355-12.415l4.975-11.609a6.428 6.428 0 119.573-8.565L37.9 10.081a6.43 6.43 0 01-1.068-2.729h-24.04a6.429 6.429 0 110-1.838h24.04a6.436 6.436 0 112.337 5.931l-14.877 9.918a6.428 6.428 0 01-9.029 8.154l-4.874 11.37a6.4 6.4 0 012.477 5.062v.077l29.415 2.595a6.431 6.431 0 116.428 6.517zm0-11.027a4.595 4.595 0 104.6 4.594 4.6 4.6 0 00-4.6-4.594zM6.433 41.354a4.595 4.595 0 104.594 4.6 4.6 4.6 0 00-4.594-4.6zM18.379 19.3a4.595 4.595 0 104.6 4.6 4.6 4.6 0 00-4.6-4.6zM43.192 1.838a4.595 4.595 0 104.594 4.6 4.6 4.6 0 00-4.594-4.6zm-36.759 0a4.595 4.595 0 104.594 4.6 4.6 4.6 0 00-4.594-4.6z"/>
  <path fill="#4c7594" d="M4.308 18.092h1.723v1.723H4.308zM4.308 22.4h1.723v1.723H4.308zM4.308 25.846h1.723v1.723H4.308zM38.769 34.462h1.723v1.723h-1.723zM38.769 37.908h1.723v1.723h-1.723zM38.769 41.354h1.723v1.723h-1.723z"/>
</svg>