<?xml version="1.0" encoding="utf-8"?>
<svg xmlns="http://www.w3.org/2000/svg" width="56" height="56">
  <title>icon__mvp-product-building</title>
  <path fill="#e5ecf7" opacity=".6" d="M0 0h56v56H0z"/>
  <path fill="#4c7594" d="M19.712 55.139H0v-1.723h13.123l-7.34-7.058a.849.849 0 01-.262-.61.84.84 0 01.262-.609l16.475-15.844-5.164-4.965a11.989 11.989 0 01-4.429.841 11.809 11.809 0 01-8.237-3.27 10.921 10.921 0 01-2.676-11.806.887.887 0 01.648-.546.954.954 0 01.191-.019.908.908 0 01.634.252l6.906 6.64 5.069-4.875-6.9-6.639a.834.834 0 01-.243-.794.868.868 0 01.561-.619 12.124 12.124 0 018.472.136 11.563 11.563 0 013.81 2.434 11.008 11.008 0 013.18 5.73 10.784 10.784 0 01-.651 6.447l5.8 5.575 2.371 2.288.155.149 11.259-10.822.568-1.637a.849.849 0 01.328-.429l4.435-3.046a.923.923 0 011.155.095l2.533 2.437a.834.834 0 01.1 1.11l-3.172 4.263a.886.886 0 01-.446.317l-1.7.546L35.56 29.91l18.351 17.645a4.188 4.188 0 010 6.091 4.607 4.607 0 01-6.335 0l-15.183-14.6-14.944 14.37h2.262v1.722zm13.315-19.991a.917.917 0 00-.633.243.839.839 0 000 1.219l.633.61 15.817 15.208a2.831 2.831 0 003.8 0 2.517 2.517 0 000-3.656l-15.183-14.6-1.9 1.828a.922.922 0 01-1.267 0l-.633-.61a.921.921 0 00-.634-.242zm-9.5-.763a3.636 3.636 0 012.531 1.01 3.358 3.358 0 010 4.874L14.02 51.841l1.267 1.218 15.839-15.23a2.519 2.519 0 010-3.656 2.832 2.832 0 013.8 0l1.267-1.218-7.6-7.31-1.266 1.218a2.518 2.518 0 010 3.656 2.832 2.832 0 01-3.8 0L7.683 45.748l1.268 1.219L20.99 35.395a3.634 3.634 0 012.534-1.011zm0 1.722a1.815 1.815 0 00-1.267.5L10.218 48.185l2.534 2.437 12.039-11.574a1.681 1.681 0 000-2.437 1.817 1.817 0 00-1.268-.504zm-6.236-13.661a.9.9 0 01.633.253l6.232 5.996.634.608a.941.941 0 001.267 0 .84.84 0 000-1.218l-.634-.609a.837.837 0 010-1.218l1.9-1.827-5.6-5.384a.837.837 0 01-.175-.98 9.22 9.22 0 00-1.916-10.783 10.131 10.131 0 00-6.973-2.765 10.278 10.278 0 00-2.028.2l6.469 6.22a.837.837 0 010 1.218l-6.335 6.091a.92.92 0 01-1.267 0l-6.469-6.217a9.215 9.215 0 002.666 8.655 9.99 9.99 0 006.969 2.767 10.1 10.1 0 004.241-.923.918.918 0 01.386-.084zm31.478-10.3l-3.58 2.459-.542 1.562a.853.853 0 01-.216.336l-11.4 10.966 1.262 1.226L45.7 17.725a.9.9 0 01.35-.208l1.625-.521 2.557-3.443zM44.815 0h1.792v3.446h-1.792zM44.815 5.169h1.792v3.446h-1.792z"/>
  <path fill="#4c7594" d="M46.607 3.446h3.584v1.723h-3.584zM41.231 3.446h3.584v1.723h-3.584zM21.504 53.415h1.792v1.723h-1.792zM48.646 49.717l1.267-1.22 1.792 1.725-1.267 1.218z"/>
</svg>