<?xml version="1.0" encoding="utf-8"?>
<svg xmlns="http://www.w3.org/2000/svg" width="64" height="64">
  <title>icon__goals--innovation</title>
  <path fill="#0b8db3" opacity=".14" d="M0 0h64v64H0z"/>
  <path fill="#3687ba" d="M16.154 31h-4.308a1.078 1.078 0 01-1.076-1.076v-2.656a10.741 10.741 0 01-1.743-.724l-1.88 1.879a1.076 1.076 0 01-1.523 0l-3.045-3.045a1.078 1.078 0 010-1.523l1.879-1.88a10.7 10.7 0 01-.725-1.744H1.077A1.078 1.078 0 010 19.154v-4.308a1.078 1.078 0 011.077-1.076h2.655a10.606 10.606 0 01.725-1.742l-1.878-1.881a1.076 1.076 0 010-1.523l3.045-3.045a1.076 1.076 0 011.523 0l1.879 1.877a10.759 10.759 0 011.743-.724V4.077A1.078 1.078 0 0111.846 3h4.308a1.078 1.078 0 011.076 1.077v2.655a10.764 10.764 0 011.744.724l1.879-1.879a1.077 1.077 0 011.523 0l3.045 3.046a1.078 1.078 0 010 1.523l-1.879 1.88a10.649 10.649 0 01.725 1.743h2.656A1.078 1.078 0 0128 14.846v4.308a1.078 1.078 0 01-1.076 1.076h-2.656a10.77 10.77 0 01-.725 1.744l1.879 1.88a1.078 1.078 0 010 1.523l-3.045 3.046a1.076 1.076 0 01-1.523 0l-1.879-1.879a10.764 10.764 0 01-1.744.724v2.656A1.078 1.078 0 0116.154 31zm-7.307-6.877a1.075 1.075 0 01.574.166 8.533 8.533 0 002.664 1.106 1.07 1.07 0 01.838 1.05v2.4h2.154v-2.4a1.07 1.07 0 01.839-1.05 8.548 8.548 0 002.665-1.106 1.076 1.076 0 011.335.149l1.7 1.7 1.523-1.523-1.7-1.7a1.071 1.071 0 01-.149-1.336 8.564 8.564 0 001.106-2.664 1.072 1.072 0 011.05-.838h2.4v-2.154h-2.4a1.072 1.072 0 01-1.051-.838 8.6 8.6 0 00-1.106-2.664 1.071 1.071 0 01.149-1.336l1.7-1.7-1.523-1.524-1.7 1.7a1.077 1.077 0 01-1.336.149 8.533 8.533 0 00-2.664-1.106 1.07 1.07 0 01-.838-1.049v-2.4h-2.154v2.4a1.07 1.07 0 01-.839 1.049 8.548 8.548 0 00-2.665 1.107 1.075 1.075 0 01-1.335-.149l-1.7-1.7-1.523 1.522 1.7 1.7a1.071 1.071 0 01.149 1.336 8.607 8.607 0 00-1.106 2.664 1.071 1.071 0 01-1.049.838h-2.4v2.154h2.4a1.072 1.072 0 011.05.838 8.6 8.6 0 001.106 2.664 1.071 1.071 0 01-.149 1.336l-1.7 1.7 1.523 1.523 1.7-1.7a1.072 1.072 0 01.762-.314z"/>
  <path fill="#3687ba" d="M13.5 23a5.5 5.5 0 115.5-5.5 5.506 5.506 0 01-5.5 5.5zm0-8.8a3.3 3.3 0 103.3 3.3 3.3 3.3 0 00-3.3-3.3zM42.5 53A10.5 10.5 0 1153 42.5 10.512 10.512 0 0142.5 53zm0-18.9a8.4 8.4 0 108.4 8.4 8.41 8.41 0 00-8.4-8.4z"/>
  <path fill="#3687ba" d="M45.725 64H38.2a1.076 1.076 0 01-1.075-1.076v-4.1a17.207 17.207 0 01-3.358-1.512L31.1 59.984a1.074 1.074 0 01-1.52 0l-5.323-5.321a1.068 1.068 0 01-.315-.76 1.082 1.082 0 01.315-.76l2.9-2.9a17.039 17.039 0 01-1.313-3.443h-3.769A1.076 1.076 0 0121 45.725V38.2a1.076 1.076 0 011.075-1.075h4.1a17.13 17.13 0 011.506-3.348l-2.59-2.223a1.076 1.076 0 01-.115-1.516l4.9-5.709a1.072 1.072 0 01.735-.371h.069a1.1 1.1 0 01.712.26l3.392 2.914a17.147 17.147 0 013.416-1.288v-3.769A1.076 1.076 0 0139.275 21H46.8a1.076 1.076 0 011.075 1.075v4.1a17.042 17.042 0 013.357 1.512l2.668-2.671a1.074 1.074 0 011.52 0l5.322 5.322a1.074 1.074 0 010 1.52l-2.9 2.9a17.039 17.039 0 011.314 3.442h3.768A1.076 1.076 0 0164 39.274V46.8a1.077 1.077 0 01-1.076 1.075h-4.1a17.1 17.1 0 01-1.512 3.357l2.669 2.67a1.076 1.076 0 010 1.52l-5.321 5.322a1.074 1.074 0 01-1.52 0l-2.9-2.9a17.075 17.075 0 01-3.44 1.312v3.768A1.077 1.077 0 0145.725 64zm-12.112-9.127a1.075 1.075 0 01.595.179 14.925 14.925 0 004.279 1.939 1.078 1.078 0 01.788 1.036v3.823h5.375V58.3a1.082 1.082 0 01.859-1.056 14.9 14.9 0 004.4-1.659 1.08 1.08 0 01.531-.14 1.067 1.067 0 01.761.316l2.7 2.7 3.8-3.8-2.515-2.515a1.079 1.079 0 01-.137-1.354 14.922 14.922 0 001.939-4.28 1.078 1.078 0 011.036-.788h3.826V40.35H58.3a1.079 1.079 0 01-1.054-.86 14.956 14.956 0 00-1.66-4.4 1.076 1.076 0 01.175-1.291l2.7-2.7-3.8-3.8-2.514 2.513a1.078 1.078 0 01-1.354.135 14.943 14.943 0 00-4.28-1.938 1.08 1.08 0 01-.788-1.037V23.15H40.35v3.55a1.079 1.079 0 01-.86 1.054 14.993 14.993 0 00-4.32 1.611 1.073 1.073 0 01-1.226-.122l-3.134-2.694-3.5 4.076 2.47 2.125a1.075 1.075 0 01.194 1.412 14.9 14.9 0 00-1.966 4.324 1.08 1.08 0 01-1.037.788H23.15v5.376h3.55a1.078 1.078 0 011.054.859 14.924 14.924 0 001.66 4.4 1.077 1.077 0 01-.176 1.291l-2.7 2.7 3.8 3.8 2.515-2.515a1.064 1.064 0 01.76-.312zM38.563 17h-2.125v-2.22a6.384 6.384 0 01-2.625-1.09l-1.572 1.571-1.5-1.5 1.571-1.571a6.3 6.3 0 01-1.092-2.627H29V7.438h2.22a6.3 6.3 0 011.089-2.626l-1.571-1.571 1.5-1.5 1.574 1.567a6.393 6.393 0 012.626-1.088V0h2.125v2.22a6.3 6.3 0 012.625 1.089l1.571-1.571 1.5 1.5-1.569 1.574a6.384 6.384 0 011.09 2.625H46v2.126h-2.22a6.306 6.306 0 01-1.09 2.626l1.571 1.571-1.5 1.5-1.571-1.571a6.4 6.4 0 01-2.627 1.091V17zM37.5 4.25a4.25 4.25 0 104.25 4.25 4.255 4.255 0 00-4.25-4.25z"/>
  <path fill="#3687ba" d="M36 8h2v2h-2z"/>
</svg>