<?xml version="1.0" encoding="utf-8"?>
<svg xmlns="http://www.w3.org/2000/svg" width="56" height="57">
  <title>icon__innovation-units</title>
  <path fill="#e5ecf7" opacity=".6" d="M0 0h56v57H0z"/>
  <path fill="#4c7594" d="M50.4 56.307h-9.882a.99.99 0 01-.988-.99V43.432h-2.966a.991.991 0 01-.988-.991v-5.943H33.6v11.886a.99.99 0 01-.988.99H22.73a.99.99 0 01-.988-.99V36.498h-1.977v5.946a.991.991 0 01-.988.991h-2.966v11.882a.99.99 0 01-.988.99H4.942a.99.99 0 01-.988-.99V43.432H.988A.991.991 0 010 42.444v-6.936a4.952 4.952 0 014.942-4.952h.533a5.929 5.929 0 118.815 0h.534a4.869 4.869 0 012.964 1.016v-3a4.952 4.952 0 014.942-4.948h.533a5.938 5.938 0 01-1.521-3.962v-.032-.032a.963.963 0 01-.366-.224 8.939 8.939 0 010-12.606 8.781 8.781 0 015.3-2.547v-.4a.991.991 0 00-.988-.991H0V.844h25.7a2.971 2.971 0 012.964 2.971v.4a8.88 8.88 0 017.9 8.849 8.862 8.862 0 01-2.6 6.3.98.98 0 01-.36.224v.066a5.938 5.938 0 01-1.522 3.962h.534a4.952 4.952 0 014.941 4.952v3a4.874 4.874 0 012.965-1.016h.534a5.929 5.929 0 118.814 0h.53a4.952 4.952 0 014.942 4.952v6.94a.991.991 0 01-.988.991h-2.966v11.882a.99.99 0 01-.988.99zm-5.929-12.875h1.976v10.894h2.965V35.508h1.977v5.942h1.977v-5.942a2.972 2.972 0 00-2.966-2.971h-9.882a2.972 2.972 0 00-2.965 2.971v5.942h1.977v-5.942h1.977v18.818h2.965V43.433zm-35.577 0h1.977v10.894h2.965V35.508h1.976v5.942h1.977v-5.942a2.971 2.971 0 00-2.964-2.971H4.942a2.972 2.972 0 00-2.965 2.971v5.942h1.976v-5.942h1.976v18.818h2.965V43.433zm17.788-6.934h1.977v10.895h2.965V28.576H33.6v5.942h1.976v-5.942a2.971 2.971 0 00-2.964-2.971h-1.418l-2.677 4.472a.987.987 0 01-1.694 0l-2.677-4.473H22.73a2.972 2.972 0 00-2.965 2.971v5.942h1.977v-5.941h1.977v18.817h2.964V36.499zm18.776-13.865a3.962 3.962 0 103.953 3.961 3.961 3.961 0 00-3.953-3.961zm-35.576 0a3.962 3.962 0 103.953 3.961 3.962 3.962 0 00-3.953-3.961zm16.569 2.971l1.219 2.04 1.22-2.038zm1.219-9.9a3.9 3.9 0 00-2.338.786 3.97 3.97 0 00-.672.64.169.169 0 00-.016.019 3.974 3.974 0 00-.506.782.03.03 0 01-.007.011v.006a3.916 3.916 0 00-.4 1.708 3.953 3.953 0 107.906 0 3.9 3.9 0 00-.394-1.691.033.033 0 00-.007-.01.049.049 0 01-.007-.01 4 4 0 00-.5-.787l-.025-.03a3.9 3.9 0 00-.673-.642 3.9 3.9 0 00-2.361-.786zm0-7.58a4.9 4.9 0 013.49 1.443 4.951 4.951 0 01.771 5.972 5.947 5.947 0 011.012 1.417l.264.265a6.978 6.978 0 00-.648-9.055 6.912 6.912 0 00-9.782 0 6.975 6.975 0 00-.648 9.054l.271-.276a5.977 5.977 0 011-1.4 4.952 4.952 0 01.768-5.977 4.9 4.9 0 013.499-1.447zm0 1.979a2.943 2.943 0 00-2.644 4.253 5.853 5.853 0 015.288 0 2.942 2.942 0 00-2.644-4.25z"/>
  <path fill="#4c7594" d="M16.69 4.365h1.757v1.761H16.69zM13.176 4.365h1.757v1.761h-1.757zM9.663 4.365h1.757v1.761H9.663z"/>
</svg>