<?xml version="1.0" encoding="utf-8"?>
<svg xmlns="http://www.w3.org/2000/svg" width="64" height="64">
<title>icon__goals--elastic-scaling</title>
  <path fill="#74d8ec" opacity=".14" d="M0 0h64v64H0z"/>
  <g opacity=".8">
    <path fill="#0b8db3" d="M38.974 62H2.026A1.03 1.03 0 011 60.969V30.031A1.03 1.03 0 012.026 29h36.948A1.03 1.03 0 0140 30.031v30.938A1.03 1.03 0 0138.974 62zm-24.631-9.281v7.219h23.605V31.063H3.053v28.875h3.079v-7.219H5.1v-2.063h10.269v2.063zm-6.159 0v7.219h4.106v-7.219z"/>
    <path fill="#0b8db3" d="M34.944 56H18.056A1.03 1.03 0 0117 55V45a1.03 1.03 0 011.056-1h16.888A1.03 1.03 0 0136 45v10a1.03 1.03 0 01-1.056 1zM19.111 46v8h14.778v-8z"/>
    <path fill="#0b8db3" d="M20.936 50.935l4.134-4.134 1.461 1.462-4.133 4.134zM26.102 50.936l4.134-4.134 1.461 1.462-4.133 4.134zM5 33h2v2H5zM9 33h2v2H9zM13 33h2v2h-2zM18 33h2v2h-2zM22 33h2v2h-2zM26 33h2v2h-2zM30 33h2v2h-2zM34 33h2v2h-2zM5 37h2v2H5zM9 37h2v2H9zM13 37h2v2h-2zM5 41h2v2H5zM9 41h2v2H9zM13 41h2v2h-2zM18 37h2v2h-2zM22 37h2v2h-2zM26 37h2v2h-2zM30 37h2v2h-2zM34 37h2v2h-2z"/>
    <path fill="#0b8db3" d="M61.967 0H1v2.067h59.933V62H63V1.033A1.033 1.033 0 0061.967 0z"/>
    <path fill="#0b8db3" d="M38.434 26L55.972 8.462v2.623H58V6.014A1.014 1.014 0 0056.986 5h-5.071v2.028h2.623L37 24.566zM54.438 43l-1.5 1.5 2.436 2.436H42v2.126h13.372L52.936 51.5l1.5 1.5 4.25-4.249a1.061 1.061 0 000-1.5zM17.062 27V7.569L19.5 9.967 21 8.488l-4.249-4.181a1.073 1.073 0 00-1.5 0L11 8.488l1.5 1.479 2.436-2.4V27z"/>
  </g>
</svg>