<?xml version="1.0" encoding="utf-8"?>
<svg xmlns="http://www.w3.org/2000/svg" width="180" height="18" viewBox="0 0 180 18">
	<title>Neoverv Logo</title>
<path fill="#fff" d="M6.676,1.817a.422.422,0,0,0,.671.335C9.376.682,10.968,0,12.8,0,16.562,0,18,1.928,18,6.727V17.584a.419.419,0,0,1-.422.416H11.747a.419.419,0,0,1-.422-.416V8.618c0-1.854-.332-2.436-1.66-2.436A3.989,3.989,0,0,0,6.789,7.695a.426.426,0,0,0-.112.287v9.6A.419.419,0,0,1,6.254,18H.422A.419.419,0,0,1,0,17.584V.708A.419.419,0,0,1,.422.291H6.254a.419.419,0,0,1,.422.416v1.11" transform="translate(48 0)"/><path fill="#fff" d="M8.854,18C3.227,18,0,14.765,0,9.124A9.3,9.3,0,0,1,2.342,2.343,8.768,8.768,0,0,1,8.854,0,8.177,8.177,0,0,1,14.8,2.152,8.516,8.516,0,0,1,17,8.34a19.187,19.187,0,0,1-.1,2.02.411.411,0,0,1-.4.368H6.723A.4.4,0,0,0,6.4,10.9a.414.414,0,0,0-.061.375c.4,1.227,1.26,1.774,2.8,1.774a12.417,12.417,0,0,0,5.694-1.328A.411.411,0,0,1,15,11.679a.4.4,0,0,1,.364.224l1.474,3a.417.417,0,0,1-.137.525A13.051,13.051,0,0,1,8.854,18Zm0-13.581c-1.363,0-2.236.8-2.6,2.373a.427.427,0,0,0,.08.364.4.4,0,0,0,.312.151H11a.412.412,0,0,0,.307-.138.383.383,0,0,0,.1-.3A2.412,2.412,0,0,0,8.854,4.419Z" transform="translate(68 0)"/><path fill="#fff" d="M9.5,18A10.03,10.03,0,0,1,2.51,15.669a7.439,7.439,0,0,1-1.866-2.8A10.512,10.512,0,0,1,0,9.089,8.866,8.866,0,0,1,2.51,2.366,9.924,9.924,0,0,1,9.5,0C15.537,0,19,3.313,19,9.089a10.516,10.516,0,0,1-.644,3.783,7.438,7.438,0,0,1-1.865,2.8A10.029,10.029,0,0,1,9.5,18Zm0-12.939a2.571,2.571,0,0,0-2.148.878,4.992,4.992,0,0,0-.784,3.151c0,2.662.9,3.849,2.932,3.849a2.625,2.625,0,0,0,2.147-.842,4.609,4.609,0,0,0,.784-3.007,4.992,4.992,0,0,0-.784-3.151A2.57,2.57,0,0,0,9.5,5.061Z" transform="translate(87 0)"/><path  fill="#fff" d="M3.919,17.673.011.555a.421.421,0,0,1,.4-.519H6.188A.418.418,0,0,1,6.6.385L8.023,8.39c.145.812.255,1.7.364,2.477L9.544,8.03l.009-.02L13.21.24A.414.414,0,0,1,13.584,0h6a.423.423,0,0,1,.372.612L11.55,17.766a.414.414,0,0,1-.372.234H4.324a.418.418,0,0,1-.4-.327" transform="translate(106 0)"/><path fill="#fff"  d="M8.217,18c-2.923,0-5.209-.856-6.611-2.475C.242,13.947-.267,11.648.136,8.876a10.284,10.284,0,0,1,3.326-6.63A10.521,10.521,0,0,1,10.467,0c2.688,0,4.791.8,6.081,2.313,1.266,1.485,1.715,3.644,1.3,6.242-.089.546-.186,1.07-.367,1.853a.424.424,0,0,1-.413.32H6.739a.427.427,0,0,0-.315.138.413.413,0,0,0-.107.314c.121,1.341.84,1.864,2.564,1.864a14.615,14.615,0,0,0,6.161-1.4.439.439,0,0,1,.17-.034.425.425,0,0,1,.4.257l1.264,3.139a.414.414,0,0,1-.174.5A15.394,15.394,0,0,1,8.217,18ZM10.282,4.419A3.375,3.375,0,0,0,7.035,6.693a.406.406,0,0,0,.032.386.423.423,0,0,0,.356.191H11.94a.418.418,0,0,0,.421-.359,2.421,2.421,0,0,0-.419-1.917A2.115,2.115,0,0,0,10.282,4.419Z" transform="translate(125 0)"/><path fill="#fff" d="M9.011,1.6a.425.425,0,0,0,.722.35A5.442,5.442,0,0,1,13.8,0c.558,0,1.063.025,1.8.075a.422.422,0,0,1,.393.485L14.983,6.4a.429.429,0,0,1-.44.346c-.642-.022-1.174-.022-1.705-.022A5.336,5.336,0,0,0,7.99,9.149a.451.451,0,0,0-.075.188l-1.2,8.3A.423.423,0,0,1,6.3,18H.426A.42.42,0,0,1,0,17.526L2.414.65A.423.423,0,0,1,2.836.291h5.87a.42.42,0,0,1,.422.473L9.011,1.6" transform="translate(143 0)"/><path fill="#fff" d="M3.92,17.673.011.555a.421.421,0,0,1,.4-.519H6.188A.418.418,0,0,1,6.6.385L8.023,8.39c.145.812.255,1.7.363,2.477L9.544,8.03a.143.143,0,0,1,.009-.02L13.21.24A.414.414,0,0,1,13.585,0h6a.422.422,0,0,1,.372.612L11.55,17.766a.415.415,0,0,1-.372.234H4.325a.418.418,0,0,1-.4-.327" transform="translate(160 0)"/><path fill="#fff" d="M4,0H.955L0,2q2.067-.933,4-2" transform="translate(28 1)"/><path fill="#fff" d="M9.232,1.565,10,0A55.273,55.273,0,0,1,1.322,3.194L0,6A56.291,56.291,0,0,0,9.232,1.565" transform="translate(25 2)"/><path fill="#fff" d="M14.562,0a10.1,10.1,0,0,0-5.2,1.767A.46.46,0,0,1,8.681,1.3L8.742.819A.463.463,0,0,0,8.287.291H2.755a.463.463,0,0,0-.454.4L0,17.468A.464.464,0,0,0,.458,18H5.987a.462.462,0,0,0,.454-.4L7.812,7.673a5.582,5.582,0,0,1,3.245-1.491c1.14,0,1.39.581,1.14,2.254l-1.245,9.031A.464.464,0,0,0,11.4,18h5.528a.461.461,0,0,0,.453-.4l.572-4.133.949,4.173a.46.46,0,0,0,.446.362H26.3l1.324-2.7c-1.3.337-2.616.641-3.956.9-.337.068-.577-.3-.259-.4q2.464-.754,4.8-1.687l1.559-3.186a60.744,60.744,0,0,1-9.119,2.108c-.328.052-.539-.33-.228-.409a58.283,58.283,0,0,0,10.4-3.849L32,6.344a56.367,56.367,0,0,1-7.759,2.335l-.746,1.83h-.258c-.069-.51-.142-1.047-.226-1.569-1.673.337-3.378.61-5.12.8-.318.037-.5-.353-.2-.418,1.762-.4,3.473-.88,5.135-1.427l-.444-2.489a55.125,55.125,0,0,1-7,.942c-.308.024-.46-.373-.165-.424a53.034,53.034,0,0,0,6.934-1.8l-.4-2.233a52.071,52.071,0,0,1-8.556.971c-.3.012-.42-.39-.133-.429A49.859,49.859,0,0,0,21.492.4L21.421,0H14.562" transform="translate(0 0)"/></svg>