<?xml version="1.0" encoding="utf-8"?>
<svg xmlns="http://www.w3.org/2000/svg" width="56" height="56">
  <title>icon__technology-readliness</title>
  <path fill="#e5ecf7" opacity=".6" d="M0 0h56v56H0z"/>
  <path fill="#4c7594" d="M30.918 55.284a3.158 3.158 0 01-1.458-.363l-10.696-5.609H16v1.049a1.026 1.026 0 01-1 1.049H1a1.027 1.027 0 01-1-1.049V33.574a1.027 1.027 0 011-1.049h25a.97.97 0 01.707.307l5.633 5.91 19.832-3.617a3.132 3.132 0 01.556-.05 3.188 3.188 0 012.108.8 3.527 3.527 0 01-.456 5.586L32.564 54.816a3.15 3.15 0 01-1.646.468zM16 34.625v12.59h3a.967.967 0 01.448.111l10.9 5.72a1.238 1.238 0 00.568.14 1.225 1.225 0 00.638-.181l21.817-13.353a1.37 1.37 0 00.176-2.169 1.231 1.231 0 00-.812-.313 1.217 1.217 0 00-.222.02L34.07 40.557l.81.849A4.093 4.093 0 0136 44.245a3.93 3.93 0 01-3.828 4.017 3.713 3.713 0 01-2.707-1.177l-5.172-5.425 1.414-1.484 5.172 5.426a1.8 1.8 0 001.293.562A1.878 1.878 0 0034 44.245a1.959 1.959 0 00-.535-1.357l-7.879-8.263zm-4 0v14.687h2V34.625zm-10 0v14.687h8V34.625zM37.554 31.476h-4.108L15.23 9.5a1.031 1.031 0 010-1.3L21.753.335A.915.915 0 0122.454 0h26.092a.915.915 0 01.7.336L55.77 8.2a1.031 1.031 0 010 1.3L37.554 31.476zm-7.335-21.64l5.282 19.111 5.278-19.111zm12.5 0l-5.144 18.626 15.44-18.626H42.721zm-24.736 0l15.44 18.626-5.145-18.626zm30.563-7.359l-4.469 5.392h8.938zm-13.046 0l-4.469 5.392h8.938zm-13.046 0l-4.469 5.392h8.938zm15.1-.51l4.469 5.391 4.469-5.391zm-13.046 0l4.469 5.391 4.469-5.391zM10.5 9.443a.924.924 0 01-.9-.943 2.772 2.772 0 00-2.7-2.835.945.945 0 010-1.888A2.772 2.772 0 009.6.944.924.924 0 0110.5 0a.924.924 0 01.9.944 2.772 2.772 0 002.7 2.833.945.945 0 010 1.888A2.772 2.772 0 0011.4 8.5a.924.924 0 01-.9.943zm0-5.668a4.61 4.61 0 01-.9.947 4.62 4.62 0 01.9.947 4.627 4.627 0 01.9-.947 4.62 4.62 0 01-.9-.947z"/>
</svg>