<?xml version="1.0" encoding="utf-8"?>
<svg xmlns="http://www.w3.org/2000/svg" width="56" height="56" viewBox="0 0 56 56">
	<title>Icon operation Assessenebt</title>
    <g fill="#4C7594" fill-rule="nonzero">
    	<rect width="100%" height="100%" fill="#E5ECF7"></rect>
        <path d="M14.875 50.75c.483 0 .875.392.875.875v3.5a.875.875 0 0 1-.875.875h-10.5a.875.875 0 0 1-.875-.875v-3.5c0-.483.392-.875.875-.875h10.5zM14 52.5H5.25v1.75H14V52.5zM28.875 9.625a9.625 9.625 0 1 1 0 19.25 9.625 9.625 0 0 1 0-19.25zm0 1.75a7.875 7.875 0 1 0 0 15.75 7.875 7.875 0 0 0 0-15.75z"/>
        <path d="M40.763 6.125L53.888 19.25 40.763 32.375H7.875v1.75h33.25a.875.875 0 0 0 .619-.256l14-14a.875.875 0 0 0 0-1.238l-14-14a.875.875 0 0 0-.619-.256H7.875v1.75h32.888z"/>
        <path d="M28 20.638l-2.881-2.882-1.238 1.238 3.5 3.5a.875.875 0 0 0 1.238 0l5.25-5.25-1.238-1.238L28 20.638zM14 20.125h1.75v-1.75H14zM14 16.625h1.75v-1.75H14zM14 23.625h1.75v-1.75H14zM10.5 50.75H8.75V2.625a.875.875 0 0 1 1.75 0V5.25h1.75V2.625a2.626 2.626 0 0 0-5.25 0v49c0 .483.392.875.875.875h3.5a.875.875 0 0 0 .875-.875V33.25H10.5v17.5z"/>
        <path d="M12.25 30.625V7.875H10.5v22.75zM0 56h56v-1.75H0z"/>
    </g>
</svg>
